<!-- 自動生成: basket-board/scripts/article/gen.mjs -->
<svg class="court-diagram" viewBox="-140 -140 1780 1240" xmlns="http://www.w3.org/2000/svg" width="900" height="627"><rect x="0" y="0" width="1500" height="1400" fill="#f3e3c3" rx="30"></rect><g stroke="#5b4a33" stroke-width="16" opacity="0.6"><rect x="505" y="0" width="490" height="580" fill="#e6cfa4"></rect><circle cx="750" cy="580" r="180" fill="none"></circle><path d="M 90 0 L 90 299.0 L 90.0 299.0 L 110.2 372.7 L 138.7 443.7 L 174.9 511.0 L 218.6 573.7 L 269.0 631.1 L 325.7 682.4 L 387.7 727.1 L 454.5 764.4 L 525.0 793.9 L 598.4 815.2 L 673.7 828.2 L 750.0 832.5 L 826.3 828.2 L 901.6 815.2 L 975.0 793.9 L 1045.5 764.4 L 1112.3 727.1 L 1174.3 682.4 L 1231.0 631.1 L 1281.4 573.7 L 1325.1 511.0 L 1361.3 443.7 L 1389.8 372.7 L 1410.0 299.0 L 1410 0" fill="none"></path></g><g><g opacity="1"><circle cx="610" cy="690" r="82" fill="#dc2626" stroke="#fff" stroke-width="11.48"></circle><text x="610" y="690" fill="#fff" font-family="&#x27;Noto Sans JP&#x27;,&#x27;Hiragino Sans&#x27;,&#x27;Yu Gothic&#x27;,sans-serif" font-size="96.75999999999999" font-weight="700" text-anchor="middle" dominant-baseline="central">1</text></g><g opacity="1"><circle cx="890" cy="690" r="82" fill="#dc2626" stroke="#fff" stroke-width="11.48"></circle><text x="890" y="690" fill="#fff" font-family="&#x27;Noto Sans JP&#x27;,&#x27;Hiragino Sans&#x27;,&#x27;Yu Gothic&#x27;,sans-serif" font-size="96.75999999999999" font-weight="700" text-anchor="middle" dominant-baseline="central">2</text></g><g opacity="1"><circle cx="300" cy="380" r="82" fill="#dc2626" stroke="#fff" stroke-width="11.48"></circle><text x="300" y="380" fill="#fff" font-family="&#x27;Noto Sans JP&#x27;,&#x27;Hiragino Sans&#x27;,&#x27;Yu Gothic&#x27;,sans-serif" font-size="96.75999999999999" font-weight="700" text-anchor="middle" dominant-baseline="central">3</text></g><g opacity="1"><circle cx="1200" cy="380" r="82" fill="#dc2626" stroke="#fff" stroke-width="11.48"></circle><text x="1200" y="380" fill="#fff" font-family="&#x27;Noto Sans JP&#x27;,&#x27;Hiragino Sans&#x27;,&#x27;Yu Gothic&#x27;,sans-serif" font-size="96.75999999999999" font-weight="700" text-anchor="middle" dominant-baseline="central">4</text></g><g opacity="1"><circle cx="750" cy="330" r="82" fill="#dc2626" stroke="#fff" stroke-width="11.48"></circle><text x="750" y="330" fill="#fff" font-family="&#x27;Noto Sans JP&#x27;,&#x27;Hiragino Sans&#x27;,&#x27;Yu Gothic&#x27;,sans-serif" font-size="96.75999999999999" font-weight="700" text-anchor="middle" dominant-baseline="central">5</text></g></g><g><text x="750" y="900" fill="#111827" font-family="&#x27;Noto Sans JP&#x27;,&#x27;Hiragino Sans&#x27;,&#x27;Yu Gothic&#x27;,sans-serif" font-size="84" font-weight="700" text-anchor="middle" dominant-baseline="central" stroke="#fff" stroke-width="16" paint-order="stroke">ガード2枚</text><text x="255" y="570" fill="#111827" font-family="&#x27;Noto Sans JP&#x27;,&#x27;Hiragino Sans&#x27;,&#x27;Yu Gothic&#x27;,sans-serif" font-size="84" font-weight="700" text-anchor="middle" dominant-baseline="central" stroke="#fff" stroke-width="16" paint-order="stroke">フォワード</text><text x="1245" y="570" fill="#111827" font-family="&#x27;Noto Sans JP&#x27;,&#x27;Hiragino Sans&#x27;,&#x27;Yu Gothic&#x27;,sans-serif" font-size="84" font-weight="700" text-anchor="middle" dominant-baseline="central" stroke="#fff" stroke-width="16" paint-order="stroke">フォワード</text><text x="750" y="130" fill="#111827" font-family="&#x27;Noto Sans JP&#x27;,&#x27;Hiragino Sans&#x27;,&#x27;Yu Gothic&#x27;,sans-serif" font-size="84" font-weight="700" text-anchor="middle" dominant-baseline="central" stroke="#fff" stroke-width="16" paint-order="stroke">センター</text></g></svg>
